<?xml version="1.0" encoding="UTF-8"?><svg id="a" xmlns="http://www.w3.org/2000/svg" viewBox="0 0 203.75 91.37"><defs><style>.b{fill:#231f20;}.c{fill:#058bb5;}</style></defs><g><path class="b" d="M14.33,52.35c0,1.66,.13,3.17,.4,4.53,.26,1.36,.76,2.5,1.49,3.43,.73,.93,1.71,1.66,2.94,2.19,1.23,.53,2.77,.8,4.63,.8,2.19,0,4.16-.71,5.92-2.14,1.76-1.43,2.64-3.63,2.64-6.62,0-1.59-.22-2.97-.65-4.13-.43-1.16-1.14-2.21-2.14-3.13-1-.93-2.31-1.77-3.93-2.54-1.63-.76-3.63-1.54-6.02-2.34-3.18-1.06-5.94-2.22-8.26-3.48-2.32-1.26-4.26-2.74-5.82-4.43-1.56-1.69-2.7-3.65-3.43-5.87-.73-2.22-1.09-4.79-1.09-7.71,0-7.03,1.96-12.27,5.87-15.72C10.78,1.73,16.15,0,22.99,0c3.18,0,6.12,.35,8.81,1.04s5.01,1.83,6.97,3.38c1.96,1.56,3.48,3.55,4.58,5.97,1.09,2.42,1.64,5.32,1.64,8.71v1.99h-13.73c0-3.38-.6-5.99-1.79-7.81-1.19-1.82-3.18-2.74-5.97-2.74-1.59,0-2.92,.23-3.98,.7-1.06,.46-1.91,1.08-2.54,1.84-.63,.76-1.06,1.64-1.29,2.64-.23,1-.35,2.02-.35,3.08,0,2.19,.46,4.03,1.39,5.52,.93,1.49,2.92,2.87,5.97,4.13l11.05,4.78c2.72,1.19,4.94,2.44,6.67,3.73,1.72,1.29,3.1,2.69,4.13,4.18,1.03,1.49,1.74,3.13,2.14,4.93s.6,3.78,.6,5.97c0,7.5-2.17,12.96-6.52,16.37-4.35,3.42-10.4,5.12-18.16,5.12s-13.88-1.76-17.37-5.27c-3.48-3.52-5.22-8.56-5.22-15.13v-2.89H14.33v2.09Z"/><path class="b" d="M94.14,13.14h-25.38V29.86h23.88v11.74h-23.88v19.11h26.37v11.74H54.44V1.39h39.71V13.14Z"/><path class="b" d="M133.85,1.39l18.81,71.05h-14.93l-3.28-15.03h-18.91l-3.28,15.03h-14.93L116.13,1.39h17.71Zm-1.89,44.29l-6.87-31.95h-.2l-6.87,31.95h13.93Z"/><path class="c" d="M171.47,38.91h.2l13.83-20h15.13l-15.42,21.1,17.71,32.44h-15.13l-11.45-21.99-4.88,6.37v15.62h-13.73V1.39h13.73V38.91Z"/></g><g><path class="c" d="M8.49,79.38l2.53,9.56h-2.01l-.44-2.02h-2.54l-.44,2.02H3.57l2.53-9.56h2.38Zm-.25,5.96l-.92-4.3h-.03l-.92,4.3h1.87Z"/><path class="c" d="M15.8,79.38h1.93v9.56h-1.93v-9.56Z"/><path class="c" d="M32.12,81.74v.74h.03c.23-.33,.49-.57,.78-.71,.29-.14,.64-.21,1.04-.21,.43,0,.79,.1,1.08,.29s.48,.48,.58,.86h.03c.14-.38,.37-.67,.69-.86,.32-.19,.69-.29,1.13-.29,.62,0,1.07,.19,1.36,.56s.44,.9,.44,1.6v5.24h-1.85v-5.03c0-.3-.06-.54-.17-.7-.11-.16-.3-.24-.56-.24-.29,0-.53,.1-.7,.29-.17,.2-.26,.51-.26,.94v4.74h-1.85v-5.03c0-.3-.06-.54-.17-.7-.11-.16-.3-.24-.56-.24-.29,0-.53,.1-.7,.29-.17,.2-.26,.51-.26,.94v4.74h-1.85v-7.2h1.77Z"/><path class="c" d="M44.5,83.77c0-.42,.07-.77,.2-1.05s.31-.51,.54-.68c.23-.17,.5-.3,.8-.38,.31-.08,.64-.11,.98-.11,.55,0,1,.05,1.34,.16,.34,.11,.6,.26,.79,.46s.31,.43,.38,.7c.07,.27,.1,.57,.1,.89v3.79c0,.34,.02,.6,.05,.79s.09,.39,.18,.6h-1.77c-.06-.12-.11-.24-.14-.37-.03-.13-.06-.26-.09-.38h-.03c-.21,.38-.46,.62-.74,.73-.28,.11-.65,.17-1.09,.17-.32,0-.59-.06-.82-.17-.22-.11-.4-.26-.54-.46-.13-.2-.23-.42-.29-.66-.06-.25-.09-.49-.09-.73,0-.34,.04-.63,.11-.88,.07-.25,.18-.46,.33-.63s.33-.32,.56-.43c.23-.12,.5-.22,.82-.31l1.04-.28c.28-.07,.47-.17,.58-.29,.11-.12,.16-.31,.16-.55,0-.28-.06-.49-.19-.65s-.35-.23-.66-.23c-.29,0-.5,.08-.64,.25-.14,.17-.21,.4-.21,.68v.2h-1.66v-.17Zm2.97,1.8c-.14,.06-.27,.1-.39,.13-.38,.08-.64,.21-.8,.4-.16,.19-.24,.44-.24,.76,0,.28,.05,.51,.16,.71,.11,.2,.29,.29,.54,.29,.12,0,.25-.02,.39-.06,.13-.04,.26-.11,.37-.19,.11-.09,.2-.21,.27-.35,.07-.14,.11-.31,.11-.51v-1.42c-.12,.1-.26,.18-.4,.23Z"/><path class="c" d="M56.74,81.74v.96h.03c.19-.35,.42-.63,.68-.84,.27-.21,.59-.31,.98-.31,.05,0,.11,0,.17,0s.11,.01,.17,.02v1.77c-.1,0-.19-.02-.29-.02-.09,0-.19,0-.29,0-.16,0-.32,.02-.48,.07-.16,.04-.31,.12-.44,.22s-.24,.24-.32,.4c-.08,.17-.12,.37-.12,.61v4.32h-1.85v-7.2h1.77Z"/><path class="c" d="M65.36,79.27v1.58h-1.85v-1.58h1.85Zm0,2.46v7.2h-1.85v-7.2h1.85Z"/><path class="c" d="M72.44,81.74v.84h.03c.2-.36,.45-.62,.76-.78s.67-.25,1.07-.25c.59,0,1.04,.16,1.36,.48,.32,.32,.47,.84,.47,1.57v5.34h-1.85v-4.97c0-.38-.06-.64-.19-.78-.12-.15-.33-.22-.6-.22-.65,0-.98,.4-.98,1.19v4.78h-1.85v-7.2h1.77Z"/><path class="c" d="M82.97,86.2c0,.21,.02,.42,.05,.62s.08,.38,.15,.54c.07,.16,.17,.28,.28,.38s.26,.14,.43,.14c.31,0,.54-.11,.68-.33,.14-.22,.24-.56,.29-1.02h1.66c-.04,.84-.26,1.48-.67,1.92s-1.06,.66-1.94,.66c-.67,0-1.19-.11-1.57-.33s-.65-.52-.83-.88c-.18-.37-.29-.78-.33-1.23s-.06-.91-.06-1.37c0-.48,.03-.95,.1-1.39,.07-.45,.2-.84,.4-1.19,.2-.35,.49-.62,.86-.83,.38-.21,.88-.31,1.5-.31,.54,0,.98,.09,1.32,.26,.34,.17,.61,.42,.81,.74,.2,.32,.33,.7,.4,1.15,.07,.45,.11,.95,.11,1.51v.42h-3.66v.58Zm1.83-2.4c-.03-.21-.07-.39-.14-.54-.07-.15-.16-.26-.28-.33-.12-.08-.27-.11-.46-.11s-.34,.04-.46,.13c-.12,.08-.22,.2-.29,.33s-.12,.29-.15,.46-.05,.34-.05,.51v.28h1.89c0-.28-.03-.52-.05-.73Z"/><path class="c" d="M100.75,79.27v1.58h-1.85v-1.58h1.85Zm0,2.46v7.2h-1.85v-7.2h1.85Z"/><path class="c" d="M107.83,81.74v.84h.03c.2-.36,.45-.62,.76-.78s.67-.25,1.07-.25c.59,0,1.04,.16,1.36,.48s.47,.84,.47,1.57v5.34h-1.85v-4.97c0-.38-.06-.64-.19-.78-.12-.15-.32-.22-.6-.22-.65,0-.98,.4-.98,1.19v4.78h-1.85v-7.2h1.77Z"/><path class="c" d="M119.02,79.68v2.06h1.07v1.26h-1.07v3.9c0,.29,.04,.49,.13,.61,.09,.12,.26,.18,.53,.18,.07,0,.14,0,.21,0,.07,0,.14-.01,.2-.02v1.29c-.21,0-.4,0-.6,.02-.19,.01-.4,.02-.61,.02-.36,0-.65-.02-.88-.07-.23-.05-.4-.15-.52-.29-.12-.15-.2-.34-.25-.58-.04-.24-.07-.54-.07-.91v-4.12h-.94v-1.26h.94v-2.06h1.85Z"/><path class="c" d="M126.33,86.2c0,.21,.02,.42,.05,.62s.08,.38,.15,.54c.07,.16,.16,.28,.28,.38,.12,.09,.26,.14,.43,.14,.31,0,.54-.11,.68-.33,.14-.22,.24-.56,.29-1.02h1.66c-.04,.84-.26,1.48-.67,1.92s-1.06,.66-1.94,.66c-.67,0-1.19-.11-1.57-.33s-.65-.52-.83-.88c-.18-.37-.29-.78-.33-1.23-.04-.46-.06-.91-.06-1.37,0-.48,.03-.95,.1-1.39,.07-.45,.2-.84,.4-1.19,.2-.35,.49-.62,.86-.83,.38-.21,.88-.31,1.5-.31,.54,0,.97,.09,1.32,.26,.34,.17,.61,.42,.81,.74,.2,.32,.33,.7,.4,1.15,.07,.45,.11,.95,.11,1.51v.42h-3.65v.58Zm1.83-2.4c-.03-.21-.07-.39-.14-.54s-.16-.26-.28-.33c-.12-.08-.27-.11-.46-.11s-.34,.04-.46,.13-.22,.2-.29,.33c-.07,.14-.12,.29-.15,.46s-.05,.34-.05,.51v.28h1.89c0-.28-.03-.52-.05-.73Z"/><path class="c" d="M136.88,79.38v9.56h-1.85v-9.56h1.85Z"/><path class="c" d="M144.11,79.38v9.56h-1.85v-9.56h1.85Z"/><path class="c" d="M151.34,79.27v1.58h-1.85v-1.58h1.85Zm0,2.46v7.2h-1.85v-7.2h1.85Z"/><path class="c" d="M162.05,88.58c0,.93-.23,1.62-.69,2.09-.46,.46-1.23,.7-2.31,.7-.79,0-1.39-.17-1.81-.5-.42-.33-.63-.81-.63-1.43h1.77c0,.23,.09,.42,.28,.55,.09,.06,.19,.11,.29,.15,.1,.04,.21,.05,.33,.05,.38,0,.64-.12,.79-.36s.23-.54,.23-.9v-.95h-.03c-.19,.27-.42,.48-.69,.64-.27,.16-.55,.24-.85,.24-.73,0-1.28-.28-1.65-.84s-.55-1.49-.55-2.8c0-.42,.02-.85,.07-1.29,.05-.44,.15-.83,.31-1.18s.38-.64,.68-.86c.3-.22,.7-.33,1.2-.33,.26,0,.53,.07,.8,.21,.28,.14,.51,.4,.68,.78h.03v-.8h1.77v6.84Zm-3.66-2.3c.02,.22,.07,.42,.13,.6,.07,.17,.16,.31,.28,.42,.12,.1,.28,.15,.48,.15s.36-.05,.49-.15,.23-.24,.31-.42c.07-.18,.13-.39,.16-.65,.03-.25,.05-.53,.05-.84,0-.87-.07-1.5-.21-1.86-.14-.37-.39-.55-.76-.55-.21,0-.37,.04-.49,.13-.12,.09-.22,.23-.29,.44-.07,.2-.12,.47-.14,.8-.02,.33-.03,.74-.03,1.22,0,.25,0,.49,.03,.71Z"/><path class="c" d="M168.95,86.2c0,.21,.02,.42,.05,.62s.08,.38,.15,.54c.07,.16,.16,.28,.28,.38,.12,.09,.26,.14,.43,.14,.31,0,.54-.11,.68-.33,.14-.22,.24-.56,.29-1.02h1.66c-.04,.84-.26,1.48-.67,1.92s-1.06,.66-1.94,.66c-.67,0-1.19-.11-1.57-.33s-.65-.52-.83-.88c-.18-.37-.29-.78-.33-1.23-.04-.46-.06-.91-.06-1.37,0-.48,.03-.95,.1-1.39,.07-.45,.2-.84,.4-1.19,.2-.35,.49-.62,.86-.83,.38-.21,.88-.31,1.5-.31,.54,0,.97,.09,1.32,.26,.34,.17,.61,.42,.81,.74,.2,.32,.33,.7,.4,1.15,.07,.45,.11,.95,.11,1.51v.42h-3.65v.58Zm1.83-2.4c-.03-.21-.07-.39-.14-.54s-.16-.26-.28-.33c-.12-.08-.27-.11-.46-.11s-.34,.04-.46,.13-.22,.2-.29,.33c-.07,.14-.12,.29-.15,.46s-.05,.34-.05,.51v.28h1.89c0-.28-.03-.52-.05-.73Z"/><path class="c" d="M179.35,81.74v.84h.03c.2-.36,.45-.62,.76-.78s.67-.25,1.07-.25c.59,0,1.04,.16,1.36,.48s.47,.84,.47,1.57v5.34h-1.85v-4.97c0-.38-.06-.64-.19-.78-.12-.15-.32-.22-.6-.22-.65,0-.98,.4-.98,1.19v4.78h-1.85v-7.2h1.77Z"/><path class="c" d="M191.73,83.81c-.02-.17-.06-.32-.12-.46s-.14-.25-.25-.33c-.11-.08-.25-.13-.43-.13-.22,0-.41,.05-.55,.15s-.25,.25-.32,.46c-.07,.2-.12,.46-.15,.76-.03,.31-.04,.67-.04,1.09,0,.45,.01,.83,.04,1.14s.08,.58,.15,.78c.07,.21,.17,.35,.3,.45,.13,.09,.3,.14,.5,.14,.31,0,.54-.13,.68-.4s.21-.7,.21-1.29h1.77c0,.95-.21,1.67-.64,2.16s-1.13,.74-2.11,.74c-.46,0-.87-.06-1.21-.17-.34-.11-.63-.31-.86-.6-.23-.29-.4-.68-.52-1.16-.12-.49-.18-1.09-.18-1.81s.07-1.35,.21-1.84,.34-.88,.6-1.17c.26-.29,.57-.49,.92-.61,.36-.12,.75-.17,1.18-.17,.86,0,1.5,.25,1.93,.75,.43,.5,.65,1.18,.65,2.04h-1.77c0-.18-.01-.35-.03-.52Z"/><path class="c" d="M200.09,86.2c0,.21,.02,.42,.05,.62s.08,.38,.15,.54c.07,.16,.16,.28,.28,.38,.12,.09,.26,.14,.43,.14,.31,0,.54-.11,.68-.33,.14-.22,.24-.56,.29-1.02h1.66c-.04,.84-.26,1.48-.67,1.92s-1.06,.66-1.94,.66c-.67,0-1.19-.11-1.57-.33s-.65-.52-.83-.88c-.18-.37-.29-.78-.33-1.23-.04-.46-.06-.91-.06-1.37,0-.48,.03-.95,.1-1.39,.07-.45,.2-.84,.4-1.19,.2-.35,.49-.62,.86-.83,.38-.21,.88-.31,1.5-.31,.54,0,.97,.09,1.32,.26,.34,.17,.61,.42,.81,.74,.2,.32,.33,.7,.4,1.15,.07,.45,.11,.95,.11,1.51v.42h-3.65v.58Zm1.83-2.4c-.03-.21-.07-.39-.14-.54s-.16-.26-.28-.33c-.12-.08-.27-.11-.46-.11s-.34,.04-.46,.13-.22,.2-.29,.33c-.07,.14-.12,.29-.15,.46s-.05,.34-.05,.51v.28h1.89c0-.28-.03-.52-.05-.73Z"/></g></svg>